<svg width="638" height="640" xmlns="http://www.w3.org/2000/svg">
 <!-- Created with Method Draw - http://github.com/duopixel/Method-Draw/ -->

 <g>
  <title>background</title>
  <rect x="-1" y="-1" width="640" height="642" id="canvas_background" fill="none"/>
  <g id="canvasGrid" display="none">
   <rect id="svg_1" width="100%" height="100%" x="0" y="0" stroke-width="0" fill="url(#gridpattern)"/>
  </g>
 </g>
 <g>
  <title>Layer 1</title>
  <path fill="#ffffff" stroke-width="0" d="m473.87641,418.07078l72.84534,-263.32528l72.84535,263.32528l-145.69069,0z" id="svg_2" transform="rotate(-112.86073303222656 546.7217407226562,286.40814208984375) " stroke="#000"/>
  <rect fill="#ffffff" stroke="#000" stroke-width="0" stroke-opacity="null" x="271.5" y="462" width="1" height="0" id="svg_6"/>
  <rect fill="#ffffff" stroke="#000" stroke-width="0" stroke-opacity="null" x="221.5" y="169" width="64" height="301" id="svg_7"/>
  <rect fill="#ffffff" stroke="#000" stroke-width="0" stroke-opacity="null" x="228.5" y="418" width="189" height="52" id="svg_8"/>
  <path fill="#ffffff" stroke-width="0" d="m501.63431,514.11707l35.44069,-144.79027l35.4407,144.79027l-70.88139,0z" id="svg_9" transform="rotate(-68.26333618164062 537.0750122070312,441.721923828125) " stroke="#000"/>
  <path fill="#ffffff" stroke-width="0" d="m17.76837,522.82194l50.32575,-198.6112l50.32576,198.6112l-100.65151,0z" id="svg_10" transform="rotate(62.78364944458008 68.094123840332,423.516357421875) " stroke="#000"/>
  <path fill="#ffffff" stroke-width="0" stroke-opacity="null" d="m71.16568,351.57339l0,-50.29677l35.09363,50.29677l-35.09363,0z" id="svg_12" transform="rotate(107.6965103149414 88.71249389648439,326.4249877929688) " stroke="#000"/>
  <path fill="#ffffff" stroke-width="0" d="m118.94727,609.08736l24.18092,-119.76223l24.18094,119.76223l-48.36186,0z" id="svg_13" transform="rotate(39.9853630065918 143.12820434570318,549.2062377929688) " stroke="#000"/>
  <path fill="#ffffff" stroke-width="0" d="m322.18544,568.78172l27.23069,-74.6585l27.23071,74.6585l-54.4614,0z" id="svg_14" transform="rotate(-14.935426712036133 349.4161376953134,531.4525146484378) " stroke="#000"/>
  <path fill="#ffffff" stroke-width="0" d="m229.97962,655.49798l30.86822,-143.96482l30.86825,143.96482l-61.73647,0z" id="svg_15" transform="rotate(5.995581150054932 260.84783935547085,583.5155639648436) " stroke="#000"/>
  <path fill="#ffffff" stroke-width="0" d="m425.05089,254.29287l36.148,-117.96602l36.14805,117.96602l-72.29605,0z" id="svg_16" transform="rotate(-135.16131591796875 461.1989135742187,195.30986022949216) " stroke="#000"/>
  <path fill="#ffffff" stroke-width="0" d="m324.03658,169.98146l12.08095,-70.53874l12.08096,70.53874l-24.16191,0z" id="svg_17" transform="rotate(-156.3515625 336.11755371093744,134.71209716796878) " stroke="#000"/>
  <path fill="#ffffff" stroke-width="0" d="m158.39129,157.10858l16.02002,-69.2904l16.02003,69.2904l-32.04005,0z" id="svg_18" transform="rotate(136.67417907714844 174.41131591796875,122.46337890625) " stroke="#000"/>
  <path fill="#ffffff" stroke-width="0" stroke-opacity="null" d="m-93.45334,357.33757l0,-230.97117l201.2363,230.97117l-201.2363,0z" id="svg_20" transform="rotate(132.81939697265625 7.1648101806640625,241.85198974609375) " stroke="#000"/>
  <path fill="#ffffff" stroke-width="0" d="m396.11134,201.46593l49.40406,-244.01145l49.4041,244.01145l-98.80816,0z" id="svg_21" transform="rotate(-145.94525146484375 445.5154113769531,79.460205078125) " stroke="#000"/>
  <path fill="#ffffff" stroke-width="0" d="m235.16954,122.5789l55.14042,-152.44251l55.14046,152.44251l-110.28088,0z" id="svg_22" transform="rotate(173.85012817382812 290.30996704101557,46.357643127441406) " stroke="#000"/>
  <path fill="#ffffff" stroke-width="0" d="m432.40048,705.41821l59.41179,-232.6292l59.41183,232.6292l-118.82362,0z" id="svg_23" transform="rotate(-28.789247512817383 491.8123168945316,589.1036376953126) " stroke="#000"/>
 </g>
</svg>