<?xml version="1.0" standalone="no"?>
<!DOCTYPE svg PUBLIC "-//W3C//DTD SVG 20010904//EN"
 "http://www.w3.org/TR/2001/REC-SVG-20010904/DTD/svg10.dtd">
<svg version="1.0" xmlns="http://www.w3.org/2000/svg"
 width="640.000000pt" height="640.000000pt" viewBox="0 0 640.000000 640.000000"
 preserveAspectRatio="xMidYMid meet">
<metadata>
Created by potrace 1.11, written by Peter Selinger 2001-2013
</metadata>
<g transform="translate(0.000000,640.000000) scale(0.100000,-0.100000)"
fill="#000000" stroke="none">
<path d="M2751 6387 c-63 -32 -53 -82 44 -218 107 -148 124 -216 84 -326 -40
-107 -132 -236 -409 -573 -116 -141 -199 -258 -253 -358 -35 -65 -41 -86 -45
-151 -12 -214 141 -397 404 -482 93 -30 222 -33 253 -5 12 11 21 25 21 33 0
24 -47 108 -109 194 -92 127 -109 201 -70 306 40 107 132 236 409 573 169 205
252 337 286 454 31 109 3 234 -75 330 -74 92 -241 195 -363 225 -61 15 -147
14 -177 -2z"/>
<path d="M3601 6387 c-63 -32 -53 -82 44 -218 107 -148 124 -216 84 -326 -40
-107 -132 -236 -409 -573 -116 -141 -199 -258 -253 -358 -35 -65 -41 -86 -45
-151 -12 -214 141 -397 404 -482 93 -30 222 -33 253 -5 12 11 21 25 21 33 0
24 -47 108 -109 194 -92 127 -109 201 -70 306 40 107 132 236 409 573 169 205
252 337 286 454 31 109 3 234 -75 330 -74 92 -241 195 -363 225 -61 15 -147
14 -177 -2z"/>
<path d="M2335 5523 c-152 -8 -598 -77 -891 -138 -437 -92 -829 -237 -1081
-400 -111 -72 -257 -218 -300 -300 -76 -146 -74 -290 8 -435 42 -73 194 -222
294 -288 284 -188 755 -354 1270 -446 470 -85 786 -107 1545 -107 857 0 1257
36 1820 162 666 149 1151 394 1329 669 59 91 74 144 69 254 -3 86 -6 99 -46
179 -77 156 -210 271 -467 403 -312 162 -709 282 -1220 369 -266 46 -397 55
-445 30 -58 -29 -120 -98 -120 -133 0 -10 117 -38 436 -102 393 -79 676 -162
864 -253 268 -130 541 -384 543 -505 2 -89 -116 -230 -313 -373 -188 -136
-291 -187 -567 -278 -487 -161 -857 -201 -1863 -201 -1032 0 -1367 38 -1898
215 -332 111 -548 238 -728 426 -155 163 -155 245 0 408 168 176 408 323 663
405 303 97 834 216 968 216 46 0 99 27 162 84 78 70 105 149 49 144 -11 -1
-48 -3 -81 -5z"/>
<path d="M3930 5133 c-37 -14 -77 -52 -132 -127 -153 -206 -166 -312 -56 -478
73 -111 98 -171 98 -239 0 -127 -106 -198 -279 -186 -115 8 -204 35 -356 107
-70 33 -139 60 -153 60 -19 0 -44 -19 -91 -69 -55 -58 -75 -72 -120 -85 -205
-59 -519 62 -691 266 -92 110 -130 206 -130 333 1 93 11 136 66 256 25 56 48
114 51 130 5 29 5 29 -41 29 -120 0 -618 -126 -876 -222 -303 -113 -521 -256
-565 -371 -46 -122 19 -217 234 -345 275 -162 849 -332 1311 -386 330 -39
1154 -45 1710 -11 447 27 594 46 826 105 513 132 859 300 995 484 24 32 29 49
29 97 0 50 -5 63 -33 101 -169 222 -854 482 -1429 543 -144 15 -338 19 -368 8z"/>
<path d="M10 3960 c0 -52 79 -155 286 -375 182 -193 295 -304 1134 -1105 382
-366 812 -777 955 -915 405 -390 461 -437 559 -474 115 -43 349 -46 482 -6 65
19 179 93 269 175 143 130 2214 2121 2315 2226 200 208 333 361 364 421 18 36
21 73 6 73 -17 0 -131 -60 -190 -100 -294 -199 -632 -332 -1182 -464 -228 -55
-425 -87 -648 -106 -478 -41 -1375 -52 -1910 -25 -530 27 -726 51 -1058 131
-550 132 -888 265 -1182 464 -59 40 -173 100 -190 100 -5 0 -10 -9 -10 -20z"/>
<path d="M1620 2039 c-19 -6 -147 -39 -285 -76 -509 -134 -815 -261 -1044
-434 -334 -251 -374 -556 -108 -820 272 -269 782 -472 1516 -604 414 -74 744
-95 1476 -95 794 0 1143 27 1650 126 621 122 1061 295 1350 531 71 57 167 185
194 257 136 364 -217 710 -964 945 -71 22 -251 72 -400 110 l-269 70 -61 -57
c-234 -221 -483 -459 -680 -652 -126 -124 -248 -240 -270 -257 -99 -76 -259
-142 -396 -164 -89 -14 -260 -6 -341 16 -86 23 -207 77 -274 121 -32 21 -174
151 -314 289 -306 300 -732 705 -740 704 -3 0 -21 -5 -40 -10z"/>
</g>
</svg>
